<svg width="60" height="60" viewBox="0 0 60 60" fill="none" xmlns="http://www.w3.org/2000/svg">
<path opacity="0.88" d="M37.5 54.375C52.5 41.4094 60 30.7838 60 22.5C60 10.0744 49.9256 0 37.5 0C25.0744 0 15 10.0744 15 22.5C15 30.7838 22.5 41.4094 37.5 54.375Z" fill="url(#paint0_radial)"/>
<path opacity="0.48" d="M22.5 5.625C37.5 18.5906 45 29.2162 45 37.5C45 49.9256 34.9256 60 22.5 60C10.0744 60 0 49.9256 0 37.5C0 29.2162 7.5 18.5906 22.5 5.625Z" fill="url(#paint1_radial)"/>
<defs>
<radialGradient id="paint0_radial" cx="0" cy="0" r="1" gradientUnits="userSpaceOnUse" gradientTransform="translate(53.3306 -26.3435) rotate(-90) scale(44.9539 65.6355)">
<stop stop-color="#376DF9"/>
<stop offset="0.46208" stop-color="#D262B4"/>
<stop offset="0.77058" stop-color="#FF8D74"/>
<stop offset="1" stop-color="#FFD4CA"/>
</radialGradient>
<radialGradient id="paint1_radial" cx="0" cy="0" r="1" gradientUnits="userSpaceOnUse" gradientTransform="translate(-4.79437 49.8203) rotate(-90) scale(44.9539 65.6355)">
<stop stop-color="#376DF9"/>
<stop offset="0.46208" stop-color="#D262B4"/>
<stop offset="0.77058" stop-color="#FF8D74"/>
<stop offset="1" stop-color="#FFD4CA"/>
</radialGradient>
</defs>
</svg>
